<?xml version="1.0" encoding="UTF-8" standalone="no"?>
<svg xmlns="http://www.w3.org/2000/svg" width="315pt" height="198pt" viewBox="0 0 315 198" preserveAspectRatio="xMidYMid">
  <!-- Athanor sigil (non-square crop). Fill is light (#d8dee9) for dark backgrounds; the light-mode pair is athanor.svg. Source: apps/web/public/athanor.svg -->
  <g transform="matrix(0.1,0,0,-0.1,-18.299508,220.72757)" fill="#d8dee9" stroke="none">
    <path
      d="M 1506.5298,2113.4561 C 1429.2299,1917.1715 1411,1846 1259,1531 l -79,-164 -83,80 c -45,44 -92,85 -104,92 -18,9 -23,20 -23,54 0,59 -25,150 -55,202 -36,60 -116,132 -183,163 -78,37 -217,38 -304,3 -162,-64 -270,-257 -240,-428 51,-290 383,-425 622,-252 l 41,30 47,-30 c 26,-17 72,-55 102,-86 l 55,-56 -34,-62 C 968,979 788,712 723,636 691,597 642,548 613,526 c -28,-23 -52,-45 -52,-49 -1,-4 38,-55 87,-112 l 87,-104 43,42 c 97,94 223,283 347,520 l 72,138 74,-113 c 104,-159 189,-331 240,-486 24,-72 46,-132 49,-132 3,0 38,83 79,185 89,223 238,532 250,519 5,-5 28,-45 52,-89 115,-217 302,-454 426,-543 l 32,-22 77,116 78,116 -44,35 c -148,119 -309,329 -445,579 l -38,70 53,80 c 131,195 285,351 406,411 64,31 87,37 160,41 102,5 157,-12 220,-70 61,-57 88,-124 82,-213 -6,-86 -38,-153 -105,-220 -46,-46 -47,-47 -54,-24 -35,129 -42,143 -88,189 -135,135 -355,97 -427,-75 -21,-50 -18,-148 6,-194 44,-88 142,-140 280,-150 l 75,-6 7,-98 c 16,-224 124.0078,-344.72304 274.203,-414.85049 84.2769,-39.34962 206.7634,-29.19476 277.2494,31.49059 116.3442,100.16724 162.4492,320.01938 119.4062,444.82263 C 3300.888,963.17158 3283,999 3275,996 c -7,-2 -72,-51 -144,-108 -67.9871,-50.98458 -82.4655,-62.28228 -56.4655,-68.28228 73,-15 52.8312,-106.62152 31.4655,-154.71772 -14.6213,-32.91395 -50.6836,-56.03141 -93,-55 -128.7622,3.13842 -196,124 -209,325 l -5,70 73,35 c 90,43 200,149 240,230 121,245 42,527 -181,639 -90,46 -155,61 -262,61 -190,0 -359,-80 -528,-249 -74,-74 -192,-223 -214,-268 -5,-13 -13,-23 -17,-23 -8,0 -155,303 -236,485 -51,116 -64.1356,140.9642 -96.3188,211.3937 -12.326,26.9741 -33.0663,80.882 -37.0663,80.882 -5,0 -21.893,-62.8607 -34.0851,-93.8196 z M 572.60668,1849.7147 c 74.43408,2.7905 158.75133,-33.253 203.16393,-93.0505 50.02173,-67.3497 65.93623,-171.6825 34.20882,-249.3454 -34.70037,-84.9401 -126.15231,-161.8052 -217.66224,-168.5041 -92.1148,-6.7432 -197.36438,54.7506 -241.46629,135.9025 -41.72213,76.7728 -30.35444,187.7962 16.38904,261.6193 41.83126,66.0651 127.22664,110.4488 205.36674,113.3782 z M 1595,1588 c 32,-79 84,-201 116,-272 l 58,-128 -53,-112 c -29,-61 -77,-171 -106,-244 -29,-73 -56,-129 -60,-125 -4,4 -33,65 -64,134 -32,69 -86,176 -121,237 l -63,112 53,118 c 28,64 78,186 111,269 32,84 62,153 65,153 3,0 32,-64 64,-142 z m 960,-322 c 31.1926,-24.8108 52,-38 64,-101 l 8,-45 h -52 c -55,0 -94,21 -116,62 -18,33 21.1675,96.0404 59,97 11.2817,0.2861 26.7693,-4.8624 37,-13 z"
    />
  </g>
</svg>
